<svg xmlns="http://www.w3.org/2000/svg" viewBox="0 0 1771.78 1059.12"><path d="M1777.39,508.81q0,9.345-.6,18.62c-.2-3.36-.47-6.7-.79-10.04-6.68-69.81-37.31-135.9-87.19-195.54l21.38-5.88C1753.5,375.36,1777.39,440.5,1777.39,508.81Z" transform="translate(-7.61 -3.44)" style="fill:#cfc"/><path d="M1776.79,527.43q.6,9.465.6,19.01c0,76.84-28.98,149.73-80.93,215.2V719.51C1744.11,660.73,1772.43,595.82,1776.79,527.43Z" transform="translate(-7.61 -3.44)" style="fill:#d9d2e9"/><path d="M1776,517.39c.32,3.34.59,6.68.79,10.04-4.36,68.39-32.68,133.3-80.33,192.08L1148.44,570.37a87.8,87.8,0,0,0,5.11-29.36,85.829,85.829,0,0,0-.82-11.81,85.829,85.829,0,0,0,.82-11.81Z" transform="translate(-7.61 -3.44)" style="fill:#d9d2e9"/><path d="M1776,517.39H1153.55c0-15.66-4.27-30.76-12.19-44.93l547.45-150.61C1738.69,381.49,1769.32,447.58,1776,517.39Z" transform="translate(-7.61 -3.44)" style="fill:#cfc"/><path d="M1710.19,315.97l-21.38,5.88c-48.86-58.43-116.2-110.68-197.6-154.15l25.76-15.69C1599.03,198.51,1665.13,254.12,1710.19,315.97Z" transform="translate(-7.61 -3.44)" style="fill:#cfc"/><path d="M1696.46,719.51v42.14c-43.72,55.1-103.71,104.92-176.38,147.4V863.84C1592.76,822.25,1652.74,773.45,1696.46,719.51Z" transform="translate(-7.61 -3.44)" style="fill:#d9d2e9"/><path d="M1148.44,570.37l548.02,149.14c-43.72,53.94-103.7,102.74-176.38,144.33L1101.07,630.23C1124.13,612.87,1140.62,592.51,1148.44,570.37Z" transform="translate(-7.61 -3.44)" style="fill:#d9d2e9"/><path d="M1688.81,321.85,1141.36,472.46c-11.87-21.26-31.94-40.43-58.09-56.32L1491.21,167.7C1572.61,211.17,1639.95,263.42,1688.81,321.85Z" transform="translate(-7.61 -3.44)" style="fill:#cfc"/><path d="M1520.08,863.84v45.21c-82.12,48.02-180.45,86.64-289.8,112.87l-1.05-47.32v-.01C1339,948.91,1437.7,911,1520.08,863.84Z" transform="translate(-7.61 -3.44)" style="fill:#d9d2e9"/><path d="M1520.08,863.84C1437.7,911,1339,948.91,1229.23,974.59L1010.12,673.41c35.85-10.26,66.96-25.1,90.95-43.18Z" transform="translate(-7.61 -3.44)" style="fill:#d9d2e9"/><path d="M1516.97,152.01l-25.76,15.69c-80.92-43.23-175.73-77.8-280.09-101.17l17.51-23.64C1337.27,68.25,1435.07,105.59,1516.97,152.01Z" transform="translate(-7.61 -3.44)" style="fill:#cfc"/><path d="M1491.21,167.7,1083.27,416.14c-28.06-17.06-63.14-30.33-102.6-38.32L1211.12,66.53C1315.48,89.9,1410.29,124.47,1491.21,167.7Z" transform="translate(-7.61 -3.44)" style="fill:#cfc"/><path d="M1229.23,974.6l1.05,47.32c-103.8,24.9-217.53,38.64-336.78,38.64v-48.38c118.85,0,232.21-13.36,335.73-37.59Z" transform="translate(-7.61 -3.44)" style="fill:#f9cb9c"/><path d="M1010.12,673.41l219.11,301.18c-103.52,24.23-216.88,37.59-335.73,37.59V689.1C935.43,689.1,975.05,683.45,1010.12,673.41Z" transform="translate(-7.61 -3.44)" style="fill:#f9cb9c"/><path d="M1228.63,42.89l-17.51,23.64c-98.57-22.09-205.67-34.2-317.62-34.2q-4.065,0-8.13.02V5.46q4.065-.015,8.13-.02C1012.12,5.44,1125.27,18.75,1228.63,42.89Z" transform="translate(-7.61 -3.44)" style="fill:#cfc"/><path d="M1211.12,66.53,980.67,377.82a440.358,440.358,0,0,0-87.17-8.53c-2.72,0-5.43.02-8.12.08v-.08l-.01-336.94q4.065-.015,8.13-.02C1005.45,32.33,1112.55,44.44,1211.12,66.53Z" transform="translate(-7.61 -3.44)" style="fill:#cfc"/><path d="M786.01,382.49a428.168,428.168,0,0,1,99.37-13.12c2.69-.06,5.4-.08,8.12-.08a440.358,440.358,0,0,1,87.17,8.53c39.46,7.99,74.54,21.26,102.6,38.32,26.15,15.89,46.22,35.06,58.09,56.32,7.92,14.17,12.19,29.27,12.19,44.93a85.829,85.829,0,0,1-.82,11.81c-10.57-76.27-122.59-136.29-259.23-136.29S644.84,452.93,634.27,529.2a85.829,85.829,0,0,1-.82-11.81c0-20.7,7.46-40.41,20.93-58.3,14.04-18.65,34.6-35.33,60.06-49.09C735.31,398.7,759.47,389.37,786.01,382.49Z" transform="translate(-7.61 -3.44)" style="fill:#e6b8af"/><path d="M1010.12,673.41c-35.07,10.04-74.69,15.69-116.62,15.69-42.12,0-81.9-5.7-117.09-15.83-36.99-10.63-68.9-26.16-93.13-45.06-24.58-19.2-41.26-41.87-47.31-66.49a86.713,86.713,0,0,1-2.52-20.71,85.829,85.829,0,0,1,.82-11.81c10.57,76.27,122.59,136.28,259.23,136.28s248.66-60.01,259.23-136.28a85.829,85.829,0,0,1,.82,11.81,87.8,87.8,0,0,1-5.11,29.36c-7.82,22.14-24.31,42.5-47.37,59.86C1077.08,648.31,1045.97,663.15,1010.12,673.41Z" transform="translate(-7.61 -3.44)" style="fill:#e6b8af"/><path d="M893.5,392.91c136.64,0,248.66,60.02,259.23,136.29-10.57,76.27-122.59,136.28-259.23,136.28S644.84,605.47,634.27,529.2C644.84,452.93,756.86,392.91,893.5,392.91Z" transform="translate(-7.61 -3.44)" style="fill:#e6b8af"/><path d="M893.5,1012.18v48.38c-117.03,0-228.74-13.23-330.97-37.26V975.7C664.76,999.22,776.47,1012.18,893.5,1012.18Z" transform="translate(-7.61 -3.44)" style="fill:#a2c4c9"/><path d="M893.5,689.1v323.08c-117.03,0-228.74-12.96-330.97-36.48L776.41,673.27C811.6,683.4,851.38,689.1,893.5,689.1Z" transform="translate(-7.61 -3.44)" style="fill:#a2c4c9"/><path d="M885.38,369.29v.08a428.168,428.168,0,0,0-99.37,13.12L554.14,71.59C656.28,46.87,768.1,32.97,885.37,32.35Z" transform="translate(-7.61 -3.44)" style="fill:#cfc"/><path d="M885.37,5.46V32.35c-117.27.62-229.09,14.52-331.23,39.24L536.66,48.15C643.46,21.28,761.36,6.1,885.37,5.46Z" transform="translate(-7.61 -3.44)" style="fill:#cfc"/><path d="M554.14,71.59l231.87,310.9c-26.54,6.88-50.7,16.21-71.57,27.51L291.59,169.95C367.8,128.71,456.55,95.21,554.14,71.59Z" transform="translate(-7.61 -3.44)" style="fill:#cfc"/><path d="M776.41,673.27,562.53,975.7c-110.94-25.53-210.7-63.51-293.93-110.9L683.28,628.21C707.51,647.11,739.42,662.64,776.41,673.27Z" transform="translate(-7.61 -3.44)" style="fill:#d9ead3"/><path d="M291.59,169.95,714.44,410c-25.46,13.76-46.02,30.44-60.06,49.09L107.57,310.96C154.65,257.91,217.13,210.24,291.59,169.95Z" transform="translate(-7.61 -3.44)" style="fill:#cfe2f3"/><path d="M683.28,628.21,268.6,864.8C188.18,819.02,123.18,764.46,78.41,703.85L633.45,562.11l2.52-.39C642.02,586.34,658.7,609.01,683.28,628.21Z" transform="translate(-7.61 -3.44)" style="fill:#cfe2f3"/><path d="M107.57,310.96,654.38,459.09c-13.47,17.89-20.93,37.6-20.93,58.3H11C18.09,443.3,52.15,373.4,107.57,310.96Z" transform="translate(-7.61 -3.44)" style="fill:#cfe2f3"/><path d="M635.97,561.72l-2.52.39L78.41,703.85C38.09,649.28,14.19,589.8,10.21,527.43c.2-3.36.47-6.7.79-10.04H633.45a85.829,85.829,0,0,0,.82,11.81,85.829,85.829,0,0,0-.82,11.81A86.713,86.713,0,0,0,635.97,561.72Z" transform="translate(-7.61 -3.44)" style="fill:#cfe2f3"/><path d="M562.53,975.7v47.6c-111.06-26.1-210.92-64.95-294.21-113.43l.27-.46V864.8h.01C351.83,912.19,451.59,950.17,562.53,975.7Z" transform="translate(-7.61 -3.44)" style="fill:#d9ead3"/><path d="M536.66,48.15l17.48,23.44c-97.59,23.62-186.34,57.12-262.55,98.36l-26.56-15.08C342.49,110.25,434.49,73.85,536.66,48.15Z" transform="translate(-7.61 -3.44)" style="fill:#cfc"/><path d="M265.03,154.87l26.56,15.08c-74.46,40.29-136.94,87.96-184.02,141.01l-22.41-6.07-.01-.01C128.91,248.72,190.19,197.96,265.03,154.87Z" transform="translate(-7.61 -3.44)" style="fill:#cfe2f3"/><path d="M78.41,703.85C123.18,764.46,188.18,819.02,268.6,864.8h-.01v44.61l-.27.46C188.4,863.36,123.72,807.98,79.03,746.5Z" transform="translate(-7.61 -3.44)" style="fill:#cfe2f3"/><path d="M85.16,304.89l22.41,6.07C52.15,373.4,18.09,443.3,11,517.39c-.32,3.34-.59,6.68-.79,10.04q-.6-9.27-.6-18.62c0-72.59,26.98-141.59,75.54-203.93Z" transform="translate(-7.61 -3.44)" style="fill:#cfe2f3"/><path d="M78.41,703.85l.62,42.65C34.32,685.01,9.61,617.4,9.61,546.44q0-9.555.6-19.01C14.19,589.8,38.09,649.28,78.41,703.85Z" transform="translate(-7.61 -3.44)" style="fill:#cfe2f3"/><path d="M1696.46,761.65c-43.72,55.1-103.71,104.92-176.38,147.4-82.12,48.02-180.45,86.64-289.8,112.87-103.8,24.9-217.53,38.64-336.78,38.64-117.03,0-228.74-13.23-330.97-37.26-111.06-26.1-210.92-64.95-294.21-113.43C188.4,863.36,123.72,807.98,79.03,746.5,34.32,685.01,9.61,617.4,9.61,546.44q0-9.555.6-19.01" transform="translate(-7.61 -3.44)" style="fill:none;stroke:#000;stroke-miterlimit:10;stroke-width:4px"/><path d="M1776.79,527.43q.6,9.465.6,19.01c0,76.84-28.98,149.73-80.93,215.2" transform="translate(-7.61 -3.44)" style="fill:none;stroke:#000;stroke-miterlimit:10;stroke-width:4px"/><path d="M1710.19,315.97c43.31,59.39,67.2,124.53,67.2,192.84q0,9.345-.6,18.62c-4.36,68.39-32.68,133.3-80.33,192.08-43.72,53.94-103.7,102.74-176.38,144.33C1437.7,911,1339,948.91,1229.23,974.59c-103.52,24.23-216.88,37.59-335.73,37.59-117.03,0-228.74-12.96-330.97-36.48-110.94-25.53-210.7-63.51-293.93-110.9C188.18,819.02,123.18,764.46,78.41,703.85,38.09,649.28,14.19,589.8,10.21,527.43q-.6-9.27-.6-18.62c0-72.59,26.98-141.59,75.54-203.93,43.76-56.16,105.04-106.92,179.88-150.01,77.46-44.62,169.46-81.02,271.63-106.72C643.46,21.28,761.36,6.1,885.37,5.46q4.065-.015,8.13-.02c118.62,0,231.77,13.31,335.13,37.45,108.64,25.36,206.44,62.7,288.34,109.12C1599.03,198.51,1665.13,254.12,1710.19,315.97Z" transform="translate(-7.61 -3.44)" style="fill:none;stroke:#000;stroke-miterlimit:10;stroke-width:4px"/><path d="M1152.73,529.2a85.829,85.829,0,0,1,.82,11.81,87.8,87.8,0,0,1-5.11,29.36c-7.82,22.14-24.31,42.5-47.37,59.86-23.99,18.08-55.1,32.92-90.95,43.18-35.07,10.04-74.69,15.69-116.62,15.69-42.12,0-81.9-5.7-117.09-15.83-36.99-10.63-68.9-26.16-93.13-45.06-24.58-19.2-41.26-41.87-47.31-66.49a86.713,86.713,0,0,1-2.52-20.71,85.829,85.829,0,0,1,.82-11.81" transform="translate(-7.61 -3.44)" style="fill:none;stroke:#000;stroke-miterlimit:10;stroke-width:4px"/><path d="M1153.55,517.39a85.829,85.829,0,0,1-.82,11.81c-10.57,76.27-122.59,136.28-259.23,136.28S644.84,605.47,634.27,529.2a85.829,85.829,0,0,1-.82-11.81c0-20.7,7.46-40.41,20.93-58.3,14.04-18.65,34.6-35.33,60.06-49.09,20.87-11.3,45.03-20.63,71.57-27.51a428.168,428.168,0,0,1,99.37-13.12c2.69-.06,5.4-.08,8.12-.08a440.358,440.358,0,0,1,87.17,8.53c39.46,7.99,74.54,21.26,102.6,38.32,26.15,15.89,46.22,35.06,58.09,56.32C1149.28,486.63,1153.55,501.73,1153.55,517.39Z" transform="translate(-7.61 -3.44)" style="fill:none;stroke:#000;stroke-miterlimit:10;stroke-width:4px"/><polyline points="675.68 624.76 675.67 624.77 260.99 861.36 260.98 861.36" style="fill:none;stroke:#000;stroke-miterlimit:10;stroke-width:4px"/><line x1="768.8" y1="669.83" x2="554.92" y2="972.26" style="fill:none;stroke:#000;stroke-miterlimit:10;stroke-width:4px"/><line x1="885.89" y1="685.66" x2="885.89" y2="1008.74" style="fill:none;stroke:#000;stroke-miterlimit:10;stroke-width:4px"/><polyline points="1002.5 669.96 1002.51 669.97 1221.62 971.15 1221.62 971.16" style="fill:none;stroke:#000;stroke-miterlimit:10;stroke-width:4px"/><line x1="1093.46" y1="626.79" x2="1512.47" y2="860.4" style="fill:none;stroke:#000;stroke-miterlimit:10;stroke-width:2px;stroke-dasharray:6"/><polyline points="1688.85 716.07 1140.83 566.93 1140.82 566.93" style="fill:none;stroke:#000;stroke-miterlimit:10;stroke-width:2px;stroke-dasharray:6"/><line x1="1145.94" y1="513.95" x2="1768.39" y2="513.95" style="fill:none;stroke:#000;stroke-miterlimit:10;stroke-width:4px"/><polyline points="1133.75 469.02 1681.2 318.41 1702.58 312.53" style="fill:none;stroke:#000;stroke-miterlimit:10;stroke-width:2px;stroke-dasharray:6"/><polyline points="1075.66 412.7 1483.6 164.26 1509.36 148.57 1509.37 148.57" style="fill:none;stroke:#000;stroke-miterlimit:10;stroke-width:2px;stroke-dasharray:6"/><polyline points="973.05 374.39 973.06 374.38 1203.51 63.09 1221.02 39.45 1221.02 39.44" style="fill:none;stroke:#000;stroke-miterlimit:10;stroke-width:2px;stroke-dasharray:6"/><polyline points="877.77 365.85 877.76 28.91 877.76 2.02" style="fill:none;stroke:#000;stroke-miterlimit:10;stroke-width:2px;stroke-dasharray:6"/><polyline points="778.41 379.06 778.4 379.05 546.53 68.15 529.05 44.71" style="fill:none;stroke:#000;stroke-miterlimit:10;stroke-width:2px;stroke-dasharray:6"/><polyline points="706.83 406.56 283.98 166.51 257.42 151.43" style="fill:none;stroke:#000;stroke-miterlimit:10;stroke-width:4px"/><polyline points="646.77 455.65 99.96 307.52 77.55 301.45" style="fill:none;stroke:#000;stroke-miterlimit:10;stroke-width:2px;stroke-dasharray:6"/><line x1="625.84" y1="513.95" x2="3.39" y2="513.95" style="fill:none;stroke:#000;stroke-miterlimit:10;stroke-width:2px;stroke-dasharray:6"/><line x1="625.84" y1="558.67" x2="70.8" y2="700.41" style="fill:none;stroke:#000;stroke-miterlimit:10;stroke-width:2px;stroke-dasharray:6"/><line x1="70.8" y1="700.41" x2="71.42" y2="743.06" style="fill:none;stroke:#000;stroke-miterlimit:10;stroke-width:2px;stroke-dasharray:6"/><line x1="260.98" y1="861.36" x2="260.98" y2="905.97" style="fill:none;stroke:#000;stroke-miterlimit:10;stroke-width:4px"/><polyline points="554.92 972.26 554.92 1019.86 554.92 1020.11" style="fill:none;stroke:#000;stroke-miterlimit:10;stroke-width:4px"/><line x1="885.89" y1="1008.74" x2="885.89" y2="1057.12" style="fill:none;stroke:#000;stroke-miterlimit:10;stroke-width:4px"/><polyline points="1221.62 971.16 1222.67 1018.48 1222.71 1020.11" style="fill:none;stroke:#000;stroke-miterlimit:10;stroke-width:4px"/><polyline points="1512.47 860.4 1512.47 905.61 1512.47 905.97" style="fill:none;stroke:#000;stroke-miterlimit:10;stroke-width:2px;stroke-dasharray:6"/><polyline points="1688.85 716.07 1688.85 758.2 1688.85 758.21" style="fill:none;stroke:#000;stroke-miterlimit:10;stroke-width:2px;stroke-dasharray:6"/><text transform="translate(763.066 513.949)" style="font-size:72px;font-family:Roboto-BoldItalic, Roboto;font-weight:700;font-style:italic"><tspan style="letter-spacing:-0.0244140625em">R</tspan><tspan x="42.82" y="0">TEMS</tspan><tspan x="40.781" y="72">Co</tspan><tspan x="126" y="72" style="letter-spacing:-0.00927734375em">r</tspan><tspan x="150.855" y="72">e</tspan></text><text transform="translate(701.417 891.945)" style="font-size:40px;font-family:Roboto-Regular, Roboto">Rate<tspan x="-55.098" y="48">Mono</tspan><tspan x="47.539" y="48" style="letter-spacing:-0.009765625em">t</tspan><tspan x="60.234" y="48">onic</tspan></text><text transform="translate(891.53 934.27)" style="font-size:40px;font-family:Roboto-Regular, Roboto">Multip<tspan x="111.973" y="0" style="letter-spacing:-0.009765625em">r</tspan><tspan x="125.137" y="0">ocessing</tspan></text><text transform="translate(473.333 860.402)" style="font-size:36px;font-family:Roboto-Regular, Roboto">I/O</text><text transform="translate(1231.038 861.363)" style="font-size:40px;font-family:Roboto-Regular, Roboto">Region</text><text transform="translate(1361.223 727.389)" style="font-size:40px;font-family:Roboto-Regular, Roboto"><tspan style="letter-spacing:-0.00537109375em">P</tspan><tspan x="25.02" y="0">a</tspan><tspan x="46.777" y="0" style="letter-spacing:0.0244140625em">r</tspan><tspan x="61.309" y="0">tition</tspan></text><text transform="translate(1360.113 580.765)" style="font-size:40px;font-family:Roboto-Regular, Roboto">Dual <tspan x="89.707" y="0" style="letter-spacing:-0.00634765625em">P</tspan><tspan x="114.688" y="0">o</tspan><tspan x="137.5" y="0" style="letter-spacing:0.0244140625em">r</tspan><tspan x="152.031" y="0">ted Memo</tspan><tspan x="332.832" y="0" style="letter-spacing:0.0087890625em">r</tspan><tspan x="346.738" y="0">y</tspan></text><text transform="translate(1525.337 445.443)" style="font-size:40px;font-family:Roboto-Regular, Roboto">Interrupt</text><text transform="translate(1438.773 305.336)" style="font-size:40px;font-family:Roboto-Regular, Roboto">Timer</text><text transform="translate(1242.62 165.533)" style="font-size:40px;font-family:Roboto-Regular, Roboto">Clock</text><text transform="translate(963.783 95.173)" style="font-size:40px;font-family:Roboto-Regular, Roboto"><tspan style="letter-spacing:-0.05517578125em">T</tspan><tspan x="21.66" y="0">ask</tspan></text><text transform="translate(633.751 95.173)" style="font-size:40px;font-family:Roboto-Regular, Roboto">Initialization</text><text transform="translate(384.41 173.984)" style="font-size:40px;font-family:Roboto-Regular, Roboto"><tspan style="letter-spacing:-0.0166015625em">F</tspan><tspan x="21.445" y="0">atal Er</tspan><tspan x="133.984" y="0" style="letter-spacing:-0.009765625em">r</tspan><tspan x="147.148" y="0">or</tspan></text><text transform="translate(249.246 278.994)" style="font-size:40px;font-family:Roboto-Regular, Roboto"><tspan style="letter-spacing:-0.0126953125em">E</tspan><tspan x="22.227" y="0" style="letter-spacing:-0.00634765625em">v</tspan><tspan x="41.348" y="0">ent</tspan></text><text transform="translate(69.282 445.443)" style="font-size:40px;font-family:Roboto-Regular, Roboto">Message</text><text transform="translate(48.96 580.766)" style="font-size:40px;font-family:Roboto-Regular, Roboto">Semapho<tspan x="169.102" y="0" style="letter-spacing:-0.00927734375em">r</tspan><tspan x="182.285" y="0">e</tspan></text><text transform="translate(193.715 727.389)" style="font-size:40px;font-family:Roboto-Regular, Roboto">Signal</text></svg>