<svg xmlns="http://www.w3.org/2000/svg" width="280mm" height="210mm" fill-rule="evenodd" stroke-linejoin="round" stroke-width="28.222" preserveAspectRatio="xMidYMid" version="1.2" viewBox="0 0 28000 21000"><defs class="ClipPathGroup"><clipPath id="a"><path d="M0 0h28000v21000H0z"/></clipPath></defs><g class="SlideGroup"><g class="Slide" clip-path="url(#a)"><g class="Page"><g class="com.sun.star.drawing.CustomShape"><path fill="none" d="M3412 999h7115v1781H3412z" class="BoundingBox"/><path fill="#FEDCC6" d="M6969 2778H3413V1000h7112v1778H6969z"/><path fill="none" stroke="#000" d="M6969 2778H3413V1000h7112v1778H6969z"/><text class="TextShape"><tspan class="TextParagraph" font-family="Liberation Sans, sans-serif" font-size="494" font-weight="400"><tspan x="4501" y="2061" class="TextPosition"><tspan>ELF files and Libraries</tspan></tspan></tspan></text></g><g class="com.sun.star.drawing.CustomShape"><path fill="none" d="M13572 999h7115v1781h-7115z" class="BoundingBox"/><path fill="#D9E4EF" d="M17129 2778h-3556V1000h7112v1778h-3556z"/><path fill="none" stroke="#000" d="M17129 2778h-3556V1000h7112v1778h-3556z"/><text class="TextShape"><tspan class="TextParagraph" font-family="Liberation Sans, sans-serif" font-size="494" font-weight="400"><tspan x="15063" y="2061" class="TextPosition"><tspan>User Configuration</tspan></tspan></tspan></text></g><g class="com.sun.star.drawing.CustomShape"><path fill="none" d="M9127 4555h7115v1781H9127z" class="BoundingBox"/><path fill="#BFBC8C" d="M12684 6334H9128V4556h7112v1778h-3556z"/><path fill="none" stroke="#000" d="M12684 6334H9128V4556h7112v1778h-3556z"/><text class="TextShape"><tspan class="TextParagraph" font-family="Liberation Sans, sans-serif" font-size="494" font-weight="400"><tspan x="10392" y="5617" class="TextPosition"><tspan>RTEMS Trace Linker</tspan></tspan></tspan></text></g><g class="com.sun.star.drawing.CustomShape"><path fill="none" d="M19668 3539h7115v1781h-7115z" class="BoundingBox"/><path fill="#C2E0AE" d="M23225 5318h-3556V3540h7112v1778h-3556z"/><path fill="none" stroke="#000" d="M23225 5318h-3556V3540h7112v1778h-3556z"/><text class="TextShape"><tspan class="TextParagraph" font-family="Liberation Sans, sans-serif" font-size="494" font-weight="400"><tspan x="20002" y="4601" class="TextPosition"><tspan>Trace Buffering Configuration</tspan></tspan></tspan></text></g><g class="com.sun.star.drawing.CustomShape"><path fill="none" d="M19668 5952h7115v1781h-7115z" class="BoundingBox"/><path fill="#BCAED5" d="M23225 7731h-3556V5953h7112v1778h-3556z"/><path fill="none" stroke="#000" d="M23225 7731h-3556V5953h7112v1778h-3556z"/><text class="TextShape"><tspan class="TextParagraph" font-family="Liberation Sans, sans-serif" font-size="494" font-weight="400"><tspan x="20391" y="7014" class="TextPosition"><tspan>GNU Compiler and Linker</tspan></tspan></tspan></text></g><g class="com.sun.star.drawing.ConnectorShape"><path fill="none" d="M16240 4428h3431v1168h-3431z" class="BoundingBox"/><path fill="none" stroke="#000" d="M19669 4429h-635v1016h-2364"/><path d="M16240 5445l450 150v-300l-450 150z"/></g><g class="com.sun.star.drawing.ConnectorShape"><path fill="none" d="M19033 4936h637v2057h-637z" class="BoundingBox"/><path fill="none" stroke="#000" d="M19034 4937v1905h205"/><path d="M19669 6842l-450-150v300l450-150z"/></g><g class="com.sun.star.drawing.CustomShape"><path fill="none" d="M9127 15477h7115v1781H9127z" class="BoundingBox"/><path fill="#7DA7D8" d="M12684 17256H9128v-1778h7112v1778h-3556z"/><path fill="none" stroke="#000" d="M12684 17256H9128v-1778h7112v1778h-3556z"/><text class="TextShape"><tspan class="TextParagraph" font-family="Liberation Sans, sans-serif" font-size="494" font-weight="400"><tspan x="10961" y="16539" class="TextPosition"><tspan>Console Output</tspan></tspan></tspan></text></g><g class="com.sun.star.drawing.CustomShape"><path fill="none" d="M9127 11921h7115v1781H9127z" class="BoundingBox"/><path fill="#BCAED5" d="M12684 13700H9128v-1778h7112v1778h-3556z"/><path fill="none" stroke="#000" d="M12684 13700H9128v-1778h7112v1778h-3556z"/><text class="TextShape"><tspan class="TextParagraph" font-family="Liberation Sans, sans-serif" font-size="494" font-weight="400"><tspan x="11994" y="12983" class="TextPosition"><tspan>Target</tspan></tspan></tspan></text></g><g class="com.sun.star.drawing.LineShape"><path fill="none" d="M9613 2777h301v1780h-301z" class="BoundingBox"/><path fill="none" stroke="#000" d="M9763 2778v1348"/><path d="M9763 4556l150-450h-300l150 450z"/></g><g class="com.sun.star.drawing.LineShape"><path fill="none" d="M14058 2777h301v1780h-301z" class="BoundingBox"/><path fill="none" stroke="#000" d="M14208 2778v1348"/><path d="M14208 4556l150-450h-300l150 450z"/></g><g class="com.sun.star.drawing.CustomShape"><path fill="none" d="M10778 1507h765v765h-765z" class="BoundingBox"/><path fill="#CCC" d="M11160 2270h-381v-762h762v762h-381z"/><path fill="none" stroke="#000" d="M11160 2270h-381v-762h762v762h-381z"/><text class="TextShape"><tspan class="TextParagraph" font-family="Liberation Sans, sans-serif" font-size="459" font-weight="400"><tspan x="11033" y="2048" class="TextPosition"><tspan>1</tspan></tspan></tspan></text></g><g class="com.sun.star.drawing.CustomShape"><path fill="none" d="M16493 12683h765v765h-765z" class="BoundingBox"/><path fill="#CCC" d="M16875 13446h-381v-762h762v762h-381z"/><path fill="none" stroke="#000" d="M16875 13446h-381v-762h762v762h-381z"/><text class="TextShape"><tspan class="TextParagraph" font-family="Liberation Sans, sans-serif" font-size="459" font-weight="400"><tspan x="16748" y="13224" class="TextPosition"><tspan>4</tspan></tspan></tspan></text></g><g class="com.sun.star.drawing.CustomShape"><path fill="none" d="M11540 6841h765v765h-765z" class="BoundingBox"/><path fill="#CCC" d="M11922 7604h-381v-762h762v762h-381z"/><path fill="none" stroke="#000" d="M11922 7604h-381v-762h762v762h-381z"/><text class="TextShape"><tspan class="TextParagraph" font-family="Liberation Sans, sans-serif" font-size="459" font-weight="400"><tspan x="11795" y="7382" class="TextPosition"><tspan>3</tspan></tspan></tspan></text></g><g class="com.sun.star.drawing.CustomShape"><path fill="none" d="M17382 5698h765v765h-765z" class="BoundingBox"/><path fill="#CCC" d="M17764 6461h-381v-762h762v762h-381z"/><path fill="none" stroke="#000" d="M17764 6461h-381v-762h762v762h-381z"/><text class="TextShape"><tspan class="TextParagraph" font-family="Liberation Sans, sans-serif" font-size="459" font-weight="400"><tspan x="17637" y="6239" class="TextPosition"><tspan>2</tspan></tspan></tspan></text></g><g class="com.sun.star.drawing.CustomShape"><path fill="none" d="M9127 8365h7115v1781H9127z" class="BoundingBox"/><path fill="#FEDCC6" d="M12684 10144H9128V8366h7112v1778h-3556z"/><path fill="none" stroke="#000" d="M12684 10144H9128V8366h7112v1778h-3556z"/><text class="TextShape"><tspan class="TextParagraph" font-family="Liberation Sans, sans-serif" font-size="494" font-weight="400"><tspan x="10239" y="9427" class="TextPosition"><tspan>Trace ELF Executable</tspan></tspan></tspan></text></g><g class="com.sun.star.drawing.ConnectorShape"><path fill="none" d="M12534 6333h301v2034h-301z" class="BoundingBox"/><path fill="none" stroke="#000" d="M12684 6334v1602"/><path d="M12684 8366l150-450h-300l150 450z"/></g><g class="com.sun.star.drawing.TextShape"><path fill="none" d="M17002 9890h9915v2136h-9915z" class="BoundingBox"/><text class="TextShape"><tspan class="TextParagraph" font-family="Liberation Sans, sans-serif" font-size="776" font-weight="700"><tspan x="17252" y="11227" class="TextPosition"><tspan>RTEMS Trace using Printk</tspan></tspan></tspan></text></g><g class="com.sun.star.drawing.LineShape"><path fill="none" d="M12534 10143h301v1780h-301z" class="BoundingBox"/><path fill="none" stroke="#000" d="M12684 10144v1348"/><path d="M12684 11922l150-450h-300l150 450z"/></g><g class="com.sun.star.drawing.LineShape"><path fill="none" d="M12534 13699h301v1780h-301z" class="BoundingBox"/><path fill="none" stroke="#000" d="M12684 13700v1348"/><path d="M12684 15478l150-450h-300l150 450z"/></g></g></g></g></svg>