<?xml version="1.0" encoding="UTF-8" standalone="no"?>
<svg
   viewBox="0 0 104.07627 25.000945"
   height="25.000946"
   width="104.07626"
   version="1.1"
   id="svg2"
   xmlns="http://www.w3.org/2000/svg"
   xmlns:svg="http://www.w3.org/2000/svg"
   xmlns:rdf="http://www.w3.org/1999/02/22-rdf-syntax-ns#"
   xmlns:cc="http://creativecommons.org/ns#"
   xmlns:dc="http://purl.org/dc/elements/1.1/">
  <metadata
     id="metadata8">
    <rdf:RDF>
      <cc:Work
         rdf:about="">
        <dc:format>image/svg+xml</dc:format>
        <dc:type
           rdf:resource="http://purl.org/dc/dcmitype/StillImage" />
      </cc:Work>
    </rdf:RDF>
  </metadata>
  <defs
     id="defs6" />
  <path
     d="m 10.31649,0.3982403 q 8.492119,0 7.461418,7.1701257 -0.317514,2.2088064 -1.515011,3.839925 -1.163428,1.597137 -2.953965,2.684549 l 4.550783,10.56829 H 11.468739 L 8.3322329,15.825904 H 6.9022885 L 5.6322304,24.66113 H 0 L 3.4877749,0.3982403 Z M 9.5157551,5.3595595 H 8.4068188 L 7.6105901,10.898567 h 1.0505717 q 1.2840316,0 2.1939542,-0.645652 Q 11.799107,9.5732826 12.043349,7.8742007 12.214319,6.6848433 11.635932,6.0391922 11.06243,5.3595595 9.5157551,5.3595595 Z M 28.148645,24.66113 H 22.516414 L 25.232385,5.7673391 h -5.077762 l 0.771804,-5.3690988 h 15.787755 l -0.771805,5.3690988 h -5.077762 z m 19.627331,0 H 35.40258 L 38.890354,0.3982403 h 12.373397 l -0.75715,5.2671539 h -6.741167 l -0.547102,3.8059435 h 6.245065 l -0.75715,5.2671533 h -6.245065 l -0.659453,4.587522 h 6.741167 z m 11.923146,0 -1.749844,-17.466562 h -0.11673 q -0.03933,0.6796327 -0.147051,1.8350084 -0.107721,1.1553756 -0.244748,2.5146406 -0.132146,1.325284 -0.312885,2.582605 l -1.5143,10.534308 H 50.623352 L 54.111127,0.3982403 h 7.499913 l 1.871585,17.2286907 h 0.11673 L 70.336619,0.3982403 h 7.499913 L 74.348757,24.66113 h -5.16531 l 1.528955,-10.636252 q 0.166084,-1.155377 0.38089,-2.446679 0.219691,-1.325284 0.444139,-2.4806593 0.229333,-1.1893573 0.356211,-1.8689901 H 71.776918 L 65.068709,24.66113 Z m 33.0316,-7.374015 q -0.283321,1.970935 -1.412814,3.73798 -1.100303,1.767045 -3.070821,2.888439 -1.93645,1.087412 -4.79634,1.087412 -1.429944,0 -2.485273,-0.169908 -1.031032,-0.135927 -1.916026,-0.475743 -0.884993,-0.339816 -1.799042,-0.883523 l 0.840192,-5.844841 q 1.550928,0.985468 3.19454,1.529174 1.648497,0.509725 3.04926,0.509725 1.254849,0 1.911772,-0.509725 0.656924,-0.509725 0.769275,-1.291303 0.136775,-0.951485 -0.655659,-1.529173 -0.758366,-0.61167 -2.649714,-1.6651 -1.424554,-0.849541 -2.430782,-1.767046 -1.001344,-0.951485 -1.418784,-2.310751 -0.41744,-1.3592658 -0.119464,-3.4321457 0.337054,-2.344733 1.553962,-3.9078883 1.221795,-1.5971371 3.085099,-2.37871477 1.897371,-0.81555932 4.231974,-0.81555932 2.042778,0 3.598843,0.54370622 1.560949,0.50972457 2.747288,1.18935727 L 92.508595,6.8547515 Q 91.268778,6.1411371 90.014182,5.7333575 88.793653,5.2915962 87.684716,5.2915962 q -1.079754,0 -1.668542,0.4417613 -0.559607,0.4417613 -0.657303,1.121394 -0.08304,0.5776879 0.232828,1.0194492 0.31587,0.4417613 1.113188,0.9854675 0.831387,0.5097246 2.260825,1.3252838 1.405141,0.781578 2.318933,1.733064 0.947863,0.917504 1.316712,2.208806 0.402916,1.257321 0.129365,3.160293 z"
     id="text3335"
     style="font-weight:900;font-size:31.4908px;line-height:125%;font-family:'Helvetica Black';-inkscape-font-specification:'Helvetica Black, Heavy';letter-spacing:-0.863748px;word-spacing:0px;fill:#bd0600;stroke-width:1px"
     aria-label="RTEMS" />
  <path
     d="m 99.045322,1.1806637 -0.06197,0.7052499 h -0.555685 l -0.118411,1.3475308 q -0.03597,0.4092968 -0.02758,0.4785624 0.01154,0.066117 0.0627,0.1101953 0.05404,0.044078 0.135052,0.044078 0.112867,0 0.334507,-0.085008 l 0.0092,0.6863592 q -0.295253,0.1322343 -0.654131,0.1322343 -0.219952,0 -0.389584,-0.078711 -0.169355,-0.08186 -0.242219,-0.2077968 -0.06967,-0.1290859 -0.08243,-0.3463281 -0.01252,-0.1542733 0.0287,-0.6233904 l 0.128095,-1.4577261 h -0.373355 l 0.06197,-0.7052499 H 97.67354 L 97.731916,0.51634356 98.593385,-5.3668208e-8 98.489637,1.1806637 Z m 0.503585,0 h 0.749593 l -0.0401,0.4565233 q 0.44904,-0.5320858 1.00472,-0.5320858 0.29522,0 0.50065,0.1322343 0.20545,0.1322344 0.32085,0.3998515 0.22611,-0.2676171 0.47216,-0.3998515 0.24605,-0.1322343 0.51231,-0.1322343 0.33862,0 0.55977,0.151125 0.22143,0.1479766 0.31175,0.4376327 0.0651,0.2140937 0.023,0.6926561 l -0.18785,2.1377884 h -0.81327 l 0.16793,-1.911101 q 0.0437,-0.497453 -0.0275,-0.642281 -0.0963,-0.1889063 -0.33071,-0.1889063 -0.17075,0 -0.3312,0.1133438 -0.16046,0.1133437 -0.24639,0.3337342 -0.0856,0.2172421 -0.12713,0.6895076 l -0.1411,1.6057027 h -0.81327 l 0.16102,-1.83239 q 0.0429,-0.4880078 0.0119,-0.6296874 -0.031,-0.1416797 -0.11748,-0.2109453 -0.0837,-0.069266 -0.23993,-0.069266 -0.18812,0 -0.3483,0.1101953 -0.16017,0.1101953 -0.245,0.317992 -0.0819,0.2077969 -0.12425,0.6895077 l -0.14276,1.6245933 h -0.813269 z"
     id="text4167"
     style="font-weight:900;font-size:6.18216px;line-height:125%;font-family:Helvetica;-inkscape-font-specification:'Helvetica Heavy';letter-spacing:0px;word-spacing:0px;fill:#bd0600;stroke-width:1px"
     aria-label="tm" />
</svg>
