<svg xmlns="http://www.w3.org/2000/svg" fill="none" stroke-linecap="square" stroke-miterlimit="10" viewBox="0 0 534.56 210.58">
  <clipPath id="a">
    <path d="M0 0h534.56v210.58H0V0z"/>
  </clipPath>
  <g clip-path="url(#a)">
    <path fill="none" d="M0 0h534.56v210.58H0z"/>
    <path fill="none" d="M-1.6 40.88h127.64v43.53H-1.6z"/>
    <path fill="#000" d="M8.27 62.79q0-2.3 1.06-3.66 1.06-1.36 2.83-1.36 1.8 0 2.8 1.27l.09-1.1h1.54v9.63q0 1.9-1.14 3-1.12 1.1-3.04 1.1-1.07 0-2.1-.45-1.01-.45-1.54-1.25l.87-1q1.08 1.33 2.66 1.33 1.22 0 1.9-.69.7-.68.7-1.95v-.84q-1 1.17-2.76 1.17-1.73 0-2.81-1.4-1.06-1.4-1.06-3.8zm1.68.2q0 1.66.7 2.6.68.96 1.91.96 1.6 0 2.33-1.45v-4.5q-.76-1.4-2.31-1.4-1.24 0-1.94.95-.69.95-.69 2.84zm11.02 4.81h-1.69v-9.86h1.69v9.86zm-1.83-12.47q0-.4.25-.68.25-.3.73-.3.5 0 .75.3.27.28.27.68t-.27.7q-.25.26-.75.26-.48 0-.73-.27-.25-.28-.25-.69zm6.8.22v2.4h1.85v1.3h-1.84v6.11q0 .6.23.9.25.3.85.3.3 0 .8-.12v1.36q-.66.19-1.29.19-1.12 0-1.7-.69-.58-.69-.58-1.94v-6.1h-1.8v-1.32h1.8v-2.39h1.69zm3.85 11.36q0-.44.25-.72.27-.3.78-.3.53 0 .8.3.27.28.27.72 0 .42-.27.7-.27.29-.8.29-.51 0-.78-.29-.25-.28-.25-.7zm9.65-7.45q-.4-.06-.85-.06-1.65 0-2.25 1.4v7h-1.67v-9.86h1.64l.02 1.14q.83-1.3 2.36-1.3.48 0 .75.12v1.56zm3.82-3.9v2.38h1.85v1.32h-1.85v6.1q0 .6.24.9.25.3.84.3.3 0 .82-.12v1.36q-.68.19-1.3.19-1.13 0-1.7-.69-.58-.69-.58-1.94v-6.1h-1.8v-1.32h1.8v-2.39h1.68zm7.9 12.43q-2 0-3.27-1.31-1.25-1.33-1.25-3.53v-.32q0-1.47.56-2.6.57-1.16 1.57-1.8 1.01-.66 2.18-.66 1.92 0 2.99 1.27Q55 60.3 55 62.66v.69h-6.67q.03 1.47.84 2.37.83.9 2.08.9.89 0 1.52-.36.62-.38 1.07-.97l1.03.8q-1.23 1.9-3.71 1.9zm-.2-8.84q-1.02 0-1.73.75-.68.73-.84 2.07h4.94v-.12q-.08-1.28-.7-1.99-.61-.71-1.68-.71zm7.58-1.2l.05 1.09q1.07-1.27 2.92-1.27 2.06 0 2.81 1.58.5-.72 1.28-1.14.8-.44 1.86-.44 3.25 0 3.3 3.42v6.61h-1.67v-6.5q0-1.06-.49-1.58-.48-.53-1.62-.53-.94 0-1.57.57-.6.56-.71 1.5v6.54H63v-6.45q0-2.16-2.1-2.16-1.66 0-2.27 1.4v7.21h-1.68v-9.86h1.59zm20.5 7.24q0-.68-.5-1.06-.52-.37-1.8-.64-1.29-.28-2.04-.66-.75-.39-1.1-.92-.36-.53-.36-1.26 0-1.2 1.01-2.04 1.03-.84 2.63-.84 1.67 0 2.71.86 1.05.86 1.05 2.22h-1.69q0-.7-.59-1.2-.6-.5-1.48-.5-.93 0-1.44.4-.52.4-.52 1.05 0 .6.49.92.48.31 1.73.6 1.27.28 2.05.67.78.39 1.15.93.4.55.4 1.35 0 1.33-1.07 2.12-1.04.8-2.73.8-1.19 0-2.11-.42-.9-.42-1.42-1.17-.52-.75-.52-1.63h1.69q.05.84.67 1.34.64.5 1.69.5.95 0 1.53-.39.58-.39.58-1.03zm3.92 1.72q0-.44.25-.72.27-.3.79-.3.53 0 .8.3.26.28.26.72 0 .42-.27.7-.26.29-.8.29-.51 0-.78-.29-.25-.28-.25-.7zm4.43-4.12q0-1.46.56-2.61.58-1.16 1.6-1.78 1.01-.63 2.3-.63 2.02 0 3.26 1.4 1.25 1.38 1.25 3.7v.12q0 1.44-.55 2.58-.55 1.14-1.58 1.78-1.01.64-2.36.64-2 0-3.25-1.4-1.23-1.4-1.23-3.7v-.1zm1.69.2q0 1.64.76 2.64.77.98 2.03.98 1.3 0 2.05-1 .75-1.01.75-2.82 0-1.63-.76-2.63-.77-1.01-2.05-1.01-1.25 0-2.02 1-.76.98-.76 2.84zm14.17-3.53q-.4-.06-.85-.06-1.65 0-2.25 1.4v7h-1.67v-9.86h1.64l.02 1.14q.83-1.3 2.36-1.3.48 0 .75.12v1.56zm1.14 3.33q0-2.3 1.06-3.66 1.06-1.36 2.83-1.36 1.8 0 2.81 1.27l.08-1.1h1.55v9.63q0 1.9-1.14 3-1.13 1.1-3.05 1.1-1.06 0-2.1-.45-1-.45-1.54-1.25l.87-1q1.08 1.33 2.66 1.33 1.22 0 1.9-.69.7-.68.7-1.95v-.84q-1 1.17-2.76 1.17-1.73 0-2.8-1.4-1.07-1.4-1.07-3.8zm1.69.2q0 1.66.68 2.6.7.96 1.93.96 1.59 0 2.32-1.45v-4.5q-.76-1.4-2.3-1.4-1.24 0-1.95.95-.68.95-.68 2.84z"/>
    <path fill="none" d="M-4.55 153.56h541.42"/>
    <path stroke="#000" stroke-dasharray="4 3" stroke-linecap="butt" stroke-linejoin="round" d="M-4.55 153.56h541.42"/>
    <path fill="none" d="M0 110.04h373.23v43.52H0z"/>
    <path fill="#000" d="M18.6 132.14q0 2.25-1.04 3.63-1.01 1.37-2.78 1.37-1.8 0-2.83-1.14v4.75h-1.67V127.1h1.53l.08 1.1q1.03-1.27 2.86-1.27 1.78 0 2.81 1.34 1.03 1.33 1.03 3.72v.15zm-1.68-.2q0-1.66-.72-2.62-.7-.97-1.95-.97-1.53 0-2.3 1.36v4.7q.77 1.36 2.33 1.36 1.2 0 1.92-.95.72-.97.72-2.88zm9.9 4.05q-.98 1.15-2.88 1.15-1.58 0-2.41-.92-.81-.92-.83-2.7v-6.42h1.69v6.37q0 2.24 1.83 2.24 1.92 0 2.56-1.44v-7.17h1.69v9.86h-1.61l-.03-.97zm12.56-3.85q0 2.25-1.05 3.63-1.03 1.37-2.78 1.37-1.88 0-2.9-1.32l-.07 1.14h-1.55v-14h1.67v5.23q1.04-1.26 2.82-1.26 1.8 0 2.83 1.35t1.03 3.7v.16zm-1.7-.2q0-1.72-.66-2.66-.66-.93-1.9-.93-1.68 0-2.42 1.54v4.27q.79 1.55 2.43 1.55 1.22 0 1.89-.94.67-.94.67-2.83zm5.65 5.02h-1.69v-14h1.69v14zm4.53 0h-1.7v-9.86h1.7v9.86zm-1.83-12.47q0-.4.25-.69.25-.3.73-.3.5 0 .75.3.27.28.27.69 0 .4-.27.69-.25.26-.75.26-.48 0-.73-.26-.25-.29-.25-.7zm8.48 11.28q.89 0 1.56-.55.69-.54.75-1.37h1.6q-.05.84-.58 1.6-.54.77-1.44 1.24-.9.45-1.9.45-2 0-3.2-1.34-1.18-1.34-1.18-3.69v-.28q0-1.44.51-2.55.53-1.12 1.52-1.73 1-.62 2.34-.62 1.66 0 2.75 1 1.11.98 1.17 2.56h-1.59q-.06-.96-.72-1.56-.66-.63-1.6-.63-1.29 0-2 .92t-.71 2.67v.33q0 1.7.7 2.63.7.92 2.02.92z"/>
    <path fill="none" d="M.65 153.56h212.38v43.53H.65z"/>
    <path fill="#000" d="M19.24 175.67q0 2.25-1.03 3.63-1.01 1.37-2.78 1.37-1.8 0-2.83-1.14v4.75h-1.67v-13.66h1.53l.08 1.1q1.03-1.27 2.86-1.27 1.78 0 2.81 1.35 1.03 1.32 1.03 3.72v.15zm-1.67-.2q0-1.66-.72-2.63-.7-.97-1.95-.97-1.53 0-2.3 1.36v4.7q.77 1.37 2.33 1.37 1.2 0 1.92-.96.72-.97.72-2.87zm8.6-3.33q-.4-.06-.85-.06-1.66 0-2.25 1.4v7H21.4v-9.86h1.64l.01 1.15q.83-1.32 2.36-1.32.49 0 .75.13v1.56zm3.37 8.34h-1.69v-9.86h1.69v9.86zm-1.83-12.46q0-.41.25-.7t.73-.29q.5 0 .75.3.27.28.27.69 0 .4-.27.68-.25.27-.75.27-.48 0-.73-.27-.25-.28-.25-.68zm7.78 10.18l2.43-7.58h1.72l-3.53 9.86h-1.28l-3.58-9.86h1.72l2.52 7.58zm11.86 2.28q-.14-.3-.23-1.03-1.17 1.22-2.82 1.22-1.45 0-2.39-.83-.92-.82-.92-2.09 0-1.53 1.16-2.38 1.17-.85 3.3-.85h1.64v-.79q0-.89-.54-1.4-.51-.53-1.54-.53-.9 0-1.52.47-.6.45-.6 1.09h-1.71q0-.74.52-1.42.53-.69 1.42-1.08.9-.4 1.98-.4 1.7 0 2.67.85t1 2.33v4.53q0 1.36.35 2.17v.14h-1.77zm-2.8-1.28q.8 0 1.5-.4.72-.43 1.04-1.08v-2.02h-1.32q-3.1 0-3.1 1.82 0 .8.53 1.25.53.43 1.35.43zm9.15-10.97v2.4h1.85v1.3H53.7v6.12q0 .6.24.89.25.3.84.3.3 0 .81-.12v1.36q-.67.2-1.3.2-1.12 0-1.7-.7-.57-.68-.57-1.93v-6.11h-1.8v-1.32h1.8v-2.39h1.68zm7.9 12.44q-2 0-3.27-1.31-1.25-1.33-1.25-3.53v-.31q0-1.47.56-2.61.56-1.16 1.56-1.8 1.02-.66 2.2-.66 1.91 0 2.97 1.27 1.07 1.26 1.07 3.62v.7h-6.67q.03 1.46.84 2.37.83.89 2.08.89.89 0 1.51-.36.63-.38 1.08-.97l1.03.8q-1.23 1.9-3.72 1.9zm-.2-8.84q-1.03 0-1.73.75-.69.73-.84 2.08h4.94v-.13q-.08-1.28-.7-1.98-.62-.72-1.68-.72z"/>
    <path fill="#38532f" fill-rule="evenodd" d="M181.76 49.9a6.37 6.37 0 0 1 6.37-6.37h98.7a6.37 6.37 0 0 1 6.36 6.37v25.5a6.37 6.37 0 0 1-6.37 6.36h-98.69a6.37 6.37 0 0 1-6.37-6.37z"/>
    <path stroke="#000" stroke-linecap="butt" stroke-linejoin="round" d="M181.76 49.9a6.37 6.37 0 0 1 6.37-6.37h98.7a6.37 6.37 0 0 1 6.36 6.37v25.5a6.37 6.37 0 0 1-6.37 6.36h-98.69a6.37 6.37 0 0 1-6.37-6.37z"/>
    <path fill="#fff" d="M205.26 68.6q-.99 1.15-2.9 1.15-1.57 0-2.4-.92-.81-.92-.83-2.7V59.7h1.69v6.37q0 2.24 1.83 2.24 1.92 0 2.56-1.44V59.7h1.69v9.86h-1.61l-.03-.97zm12.52-3.85q0 2.25-1.04 3.63-1.01 1.37-2.78 1.37-1.8 0-2.83-1.14v4.75h-1.67V59.71H211l.08 1.09q1.03-1.27 2.86-1.27 1.78 0 2.81 1.35 1.04 1.33 1.04 3.72v.15zm-1.68-.2q0-1.66-.72-2.62-.7-.97-1.95-.97-1.53 0-2.3 1.36v4.7q.77 1.36 2.33 1.36 1.2 0 1.92-.95.72-.97.72-2.88zm9.56 2.4q0-.68-.51-1.06-.52-.37-1.8-.64-1.28-.28-2.03-.65-.75-.4-1.1-.92-.37-.54-.37-1.27 0-1.2 1.02-2.03 1.03-.85 2.62-.85 1.67 0 2.72.86 1.05.86 1.05 2.22h-1.69q0-.7-.6-1.2-.59-.5-1.48-.5-.92 0-1.44.4-.51.4-.51 1.05 0 .61.48.92.49.32 1.74.6 1.26.28 2.04.67.79.4 1.16.94.4.54.4 1.34 0 1.33-1.07 2.13-1.05.8-2.74.8-1.18 0-2.1-.43-.91-.42-1.43-1.17-.51-.75-.51-1.63h1.69q.04.85.67 1.35.64.5 1.68.5.96 0 1.54-.4.57-.38.57-1.02zm6.17-9.63v2.39h1.84V61h-1.84v6.12q0 .6.23.89.25.3.85.3.3 0 .81-.11v1.36q-.67.18-1.3.18-1.12 0-1.7-.68-.58-.7-.58-1.94v-6.11h-1.8V59.7h1.8v-2.4h1.69zm8.58 3.9q-.4-.06-.84-.06-1.66 0-2.25 1.4v7h-1.68v-9.85h1.64l.02 1.14q.83-1.32 2.36-1.32.48 0 .75.13v1.56zm5.62 8.53q-2 0-3.26-1.3-1.25-1.34-1.25-3.54v-.31q0-1.47.56-2.61.56-1.16 1.56-1.8 1.02-.66 2.2-.66 1.91 0 2.98 1.27 1.06 1.27 1.06 3.63v.68h-6.67q.03 1.47.84 2.38.83.89 2.08.89.89 0 1.51-.36.63-.38 1.08-.97l1.03.8q-1.23 1.9-3.72 1.9zm-.2-8.84q-1.01 0-1.72.75-.68.73-.84 2.08h4.94v-.13q-.08-1.28-.7-1.98-.62-.72-1.68-.72zm12.09 8.66q-.14-.3-.24-1.04-1.17 1.22-2.8 1.22-1.46 0-2.4-.82-.92-.83-.92-2.1 0-1.53 1.16-2.37 1.17-.86 3.3-.86h1.63v-.78q0-.9-.53-1.41-.51-.53-1.55-.53-.9 0-1.51.47-.61.45-.61 1.1h-1.7q0-.74.51-1.43.53-.69 1.42-1.08.91-.4 1.99-.4 1.7 0 2.67.85t1 2.33v4.53q0 1.36.34 2.18v.14h-1.76zm-2.8-1.29q.8 0 1.5-.4.72-.42 1.03-1.08v-2.02h-1.31q-3.1 0-3.1 1.82 0 .8.52 1.25.53.43 1.36.43zm8.45-8.57l.04 1.09q1.08-1.27 2.93-1.27 2.06 0 2.8 1.58.5-.72 1.29-1.14.8-.44 1.86-.44 3.25 0 3.3 3.43v6.6h-1.68v-6.5q0-1.06-.48-1.57-.49-.53-1.63-.53-.93 0-1.56.56-.6.56-.72 1.5v6.55h-1.68V63.1q0-2.15-2.11-2.15-1.66 0-2.27 1.4v7.2h-1.69v-9.85h1.6z"/>
    <path fill="none" d="M383.56 0h153.57v43.53H383.56z"/>
    <path fill="#000" d="M408.68 25.95q-.99 1.16-2.9 1.16-1.57 0-2.4-.92-.81-.93-.83-2.7v-6.43h1.7v6.38q0 2.23 1.82 2.23 1.92 0 2.56-1.44v-7.17h1.69v9.86h-1.61l-.03-.97zm9.94-1.64q0-.69-.52-1.06-.51-.38-1.8-.64-1.27-.28-2.02-.66-.75-.39-1.11-.92-.36-.53-.36-1.27 0-1.2 1.01-2.03 1.03-.84 2.63-.84 1.67 0 2.72.86 1.04.86 1.04 2.22h-1.68q0-.7-.6-1.2t-1.48-.5q-.92 0-1.44.4-.52.4-.52 1.05 0 .6.49.92.48.31 1.73.6 1.27.27 2.05.66.78.4 1.16.94.39.55.39 1.35 0 1.32-1.07 2.12-1.04.8-2.73.8-1.19 0-2.11-.42-.9-.43-1.42-1.18-.52-.75-.52-1.62h1.69q.05.84.67 1.34.64.5 1.69.5.95 0 1.53-.39.58-.39.58-1.03zm7.96 2.8q-2 0-3.26-1.32-1.25-1.32-1.25-3.53v-.3q0-1.48.56-2.62.56-1.15 1.56-1.8 1.02-.65 2.19-.65 1.92 0 2.98 1.26 1.07 1.27 1.07 3.63v.69h-6.68q.04 1.47.85 2.37.83.9 2.08.9.89 0 1.51-.37.63-.37 1.08-.97l1.03.8q-1.23 1.9-3.72 1.9zm-.2-8.85q-1.02 0-1.72.75-.69.74-.84 2.08h4.93v-.12q-.07-1.28-.7-1.99-.6-.72-1.67-.72zm10.77.32q-.39-.07-.84-.07-1.66 0-2.25 1.41v7h-1.67v-9.86h1.64l.01 1.14q.83-1.31 2.36-1.31.49 0 .75.12v1.57zm1.88 9.48h-1.45l5.54-14.4h1.44l-5.53 14.4zm12.13-9.48q-.4-.07-.85-.07-1.65 0-2.25 1.41v7h-1.67v-9.86h1.64l.02 1.14q.82-1.31 2.36-1.31.48 0 .75.12v1.57zm3.82-3.91v2.4h1.85v1.3h-1.85v6.11q0 .6.24.9.25.29.84.29.3 0 .81-.1v1.35q-.67.19-1.3.19-1.12 0-1.7-.69-.57-.69-.57-1.94v-6.1h-1.8v-1.32h1.8v-2.39h1.68zm7.9 12.44q-2 0-3.27-1.32-1.25-1.32-1.25-3.53v-.3q0-1.48.56-2.62.56-1.15 1.56-1.8 1.02-.65 2.2-.65 1.91 0 2.98 1.26 1.06 1.27 1.06 3.63v.69h-6.67q.03 1.47.84 2.37.83.9 2.08.9.89 0 1.51-.37.63-.37 1.08-.97l1.03.8q-1.23 1.9-3.72 1.9zm-.2-8.85q-1.02 0-1.73.75-.68.74-.84 2.08h4.94v-.12q-.08-1.28-.7-1.99-.62-.72-1.68-.72zm7.58-1.2l.05 1.1q1.07-1.27 2.92-1.27 2.06 0 2.81 1.58.5-.72 1.28-1.14.8-.44 1.86-.44 3.25 0 3.3 3.42v6.61h-1.67v-6.5q0-1.06-.49-1.58-.48-.53-1.62-.53-.94 0-1.57.56-.6.57-.72 1.5v6.55h-1.68v-6.45q0-2.16-2.11-2.16-1.66 0-2.27 1.4v7.21h-1.69v-9.86h1.6zm20.5 7.25q0-.69-.5-1.06-.52-.38-1.8-.64-1.29-.28-2.04-.66-.75-.39-1.1-.92-.37-.53-.37-1.27 0-1.2 1.02-2.03 1.03-.84 2.62-.84 1.68 0 2.72.86 1.05.86 1.05 2.22h-1.69q0-.7-.6-1.2-.58-.5-1.48-.5-.92 0-1.43.4-.52.4-.52 1.05 0 .6.49.92.48.31 1.73.6 1.27.27 2.05.66.78.4 1.15.94.4.55.4 1.35 0 1.32-1.07 2.12-1.05.8-2.73.8-1.2 0-2.11-.42-.9-.43-1.42-1.18-.52-.75-.52-1.62h1.69q.04.84.67 1.34.64.5 1.69.5.95 0 1.53-.39.58-.39.58-1.03zm3.92 1.72q0-.44.25-.72.27-.3.78-.3.54 0 .8.3.27.28.27.72 0 .42-.27.7-.26.28-.8.28-.51 0-.78-.28-.25-.28-.25-.7zm4.48-4.13q0-2.3 1.06-3.65 1.06-1.36 2.83-1.36 1.8 0 2.8 1.26l.09-1.09h1.54v9.63q0 1.9-1.14 3-1.12 1.1-3.04 1.1-1.07 0-2.1-.45-1.01-.45-1.54-1.25l.87-1q1.08 1.33 2.66 1.33 1.22 0 1.9-.69.69-.69.69-1.95v-.84q-1 1.17-2.75 1.17-1.73 0-2.81-1.4-1.06-1.4-1.06-3.8zm1.68.2q0 1.66.69 2.62.69.95 1.92.95 1.6 0 2.33-1.45v-4.5q-.77-1.4-2.31-1.4-1.24 0-1.94.94-.69.96-.69 2.85zm11.02 4.82h-1.7v-9.86h1.7v9.86zm-1.83-12.47q0-.4.25-.69.25-.3.73-.3.5 0 .75.3.27.28.27.7 0 .4-.27.68-.25.26-.75.26-.48 0-.73-.26-.25-.28-.25-.69zm6.8.22v2.4h1.85v1.3h-1.84v6.11q0 .6.23.9.25.29.85.29.3 0 .8-.1v1.35q-.66.19-1.29.19-1.12 0-1.7-.69-.58-.69-.58-1.94v-6.1h-1.8v-1.32h1.8v-2.39h1.69z"/>
    <path fill="none" d="M160.69 0h153.58v43.53H160.69z"/>
    <path fill="#000" d="M206.4 18.58q-.4-.07-.85-.07-1.66 0-2.25 1.41v7h-1.67v-9.86h1.64l.01 1.14q.83-1.31 2.36-1.31.49 0 .75.12v1.57zm3.82-3.91v2.4h1.85v1.3h-1.85v6.11q0 .6.24.9.25.29.84.29.3 0 .81-.1v1.35q-.67.19-1.3.19-1.12 0-1.7-.69-.57-.69-.57-1.94v-6.1h-1.8v-1.32h1.8v-2.39h1.68zm7.9 12.44q-2 0-3.27-1.32-1.25-1.32-1.25-3.53v-.3q0-1.48.56-2.62.56-1.15 1.56-1.8 1.02-.65 2.2-.65 1.91 0 2.98 1.26 1.06 1.27 1.06 3.63v.69h-6.67q.03 1.47.84 2.37.83.9 2.08.9.89 0 1.51-.37.63-.37 1.08-.97l1.03.8q-1.23 1.9-3.72 1.9zm-.2-8.85q-1.02 0-1.73.75-.69.74-.84 2.08h4.94v-.12q-.08-1.28-.7-1.99-.62-.72-1.68-.72zm7.58-1.2l.04 1.1q1.08-1.27 2.93-1.27 2.06 0 2.8 1.58.5-.72 1.29-1.14.8-.44 1.86-.44 3.25 0 3.3 3.42v6.61h-1.68v-6.5q0-1.06-.48-1.58-.48-.53-1.62-.53-.94 0-1.57.56-.6.57-.72 1.5v6.55h-1.68v-6.45q0-2.16-2.11-2.16-1.66 0-2.27 1.4v7.21h-1.69v-9.86h1.6zm20.5 7.25q0-.69-.51-1.06-.52-.38-1.8-.64-1.28-.28-2.03-.66-.75-.39-1.1-.92-.37-.53-.37-1.27 0-1.2 1.02-2.03 1.03-.84 2.62-.84 1.68 0 2.72.86 1.05.86 1.05 2.22h-1.69q0-.7-.6-1.2-.59-.5-1.48-.5-.92 0-1.43.4-.52.4-.52 1.05 0 .6.48.92.49.31 1.74.6 1.26.27 2.05.66.78.4 1.15.94.4.55.4 1.35 0 1.32-1.07 2.12-1.05.8-2.73.8-1.2 0-2.11-.42-.91-.43-1.43-1.18-.51-.75-.51-1.62h1.69q.04.84.67 1.34.64.5 1.69.5.95 0 1.53-.39.58-.39.58-1.03zm3.92 1.72q0-.44.25-.72.27-.3.78-.3.53 0 .8.3.27.28.27.72 0 .42-.27.7-.27.28-.8.28-.51 0-.78-.28-.25-.28-.25-.7zm4.47-4.13q0-2.3 1.07-3.65 1.06-1.36 2.83-1.36 1.8 0 2.8 1.26l.09-1.09h1.54v9.63q0 1.9-1.14 3-1.12 1.1-3.04 1.1-1.07 0-2.1-.45-1.01-.45-1.55-1.25l.88-1q1.08 1.33 2.66 1.33 1.21 0 1.9-.69t.69-1.95v-.84q-1 1.17-2.75 1.17-1.73 0-2.81-1.4-1.07-1.4-1.07-3.8zm1.7.2q0 1.66.68 2.62.69.95 1.92.95 1.6 0 2.33-1.45v-4.5q-.77-1.4-2.31-1.4-1.24 0-1.94.94-.69.96-.69 2.85zm11 4.82h-1.68v-9.86h1.69v9.86zm-1.82-12.47q0-.4.25-.69.25-.3.73-.3.5 0 .75.3.27.28.27.7 0 .4-.27.68-.25.26-.75.26-.48 0-.73-.26-.25-.28-.25-.69zm6.8.22v2.4h1.85v1.3h-1.84v6.11q0 .6.23.9.25.29.84.29.3 0 .82-.1v1.35q-.68.19-1.3.19-1.13 0-1.7-.69-.58-.69-.58-1.94v-6.1h-1.8v-1.32h1.8v-2.39h1.69z"/>
    <path fill="#38532f" fill-rule="evenodd" d="M404.63 49.9a6.37 6.37 0 0 1 6.37-6.37h98.69a6.37 6.37 0 0 1 6.37 6.37v25.5a6.37 6.37 0 0 1-6.37 6.36H411a6.37 6.37 0 0 1-6.37-6.37z"/>
    <path stroke="#000" stroke-linecap="butt" stroke-linejoin="round" d="M404.63 49.9a6.37 6.37 0 0 1 6.37-6.37h98.69a6.37 6.37 0 0 1 6.37 6.37v25.5a6.37 6.37 0 0 1-6.37 6.36H411a6.37 6.37 0 0 1-6.37-6.37z"/>
    <path fill="#fff" d="M437.79 64.55q0-1.45.56-2.6.58-1.17 1.6-1.8 1.01-.62 2.3-.62 2.02 0 3.26 1.4 1.25 1.39 1.25 3.7v.12q0 1.44-.55 2.58-.55 1.14-1.58 1.78-1.01.64-2.36.64-2 0-3.25-1.39-1.23-1.4-1.23-3.7v-.11zm1.69.2q0 1.64.76 2.64.77.99 2.03.99 1.3 0 2.05-1 .75-1.02.75-2.83 0-1.62-.77-2.62-.76-1.02-2.04-1.02-1.25 0-2.02 1-.76.98-.76 2.84zm14.17-3.53q-.4-.06-.85-.06-1.65 0-2.25 1.4v7h-1.67v-9.85h1.64l.02 1.14q.83-1.32 2.36-1.32.48 0 .75.13v1.56zm3.37 8.35h-1.69V59.7h1.7v9.86zM455.2 57.1q0-.4.25-.7.25-.29.74-.29.5 0 .75.3.26.28.26.69 0 .4-.26.68-.25.27-.75.27-.49 0-.74-.27-.25-.28-.25-.68zm4.12 7.45q0-2.3 1.07-3.66 1.06-1.36 2.83-1.36 1.8 0 2.8 1.27l.09-1.1h1.54v9.63q0 1.9-1.14 3-1.12 1.11-3.04 1.11-1.07 0-2.1-.45-1.01-.46-1.55-1.25l.88-1q1.08 1.33 2.66 1.33 1.21 0 1.9-.7.69-.68.69-1.94v-.85q-1 1.17-2.75 1.17-1.73 0-2.81-1.39-1.07-1.4-1.07-3.81zm1.7.2q0 1.66.68 2.61.69.96 1.92.96 1.6 0 2.33-1.46v-4.5q-.77-1.4-2.31-1.4-1.24 0-1.94.95-.69.95-.69 2.84zm11 4.82h-1.68V59.7h1.69v9.86zM470.2 57.1q0-.4.25-.7.25-.29.73-.29.5 0 .75.3.27.28.27.69 0 .4-.27.68-.25.27-.75.27-.48 0-.73-.27-.25-.28-.25-.68zm6.12 2.6l.05 1.24q1.12-1.4 2.95-1.4 3.12 0 3.16 3.51v6.52h-1.7v-6.52q0-1.08-.5-1.58-.46-.51-1.48-.51-.8 0-1.43.43-.61.44-.97 1.16v7.02h-1.67V59.7h1.59z"/>
    <path fill="#dbe5c6" fill-rule="evenodd" d="M293.2 173.46a6.37 6.37 0 0 1 6.37-6.37h98.68a6.37 6.37 0 0 1 6.38 6.37v25.49a6.37 6.37 0 0 1-6.38 6.37h-98.68a6.37 6.37 0 0 1-6.38-6.37z"/>
    <path stroke="#000" stroke-linecap="butt" stroke-linejoin="round" d="M293.2 173.46a6.37 6.37 0 0 1 6.37-6.37h98.68a6.37 6.37 0 0 1 6.38 6.37v25.49a6.37 6.37 0 0 1-6.38 6.37h-98.68a6.37 6.37 0 0 1-6.38-6.37z"/>
    <path fill="#000" d="M330.83 184.78q-.4-.06-.85-.06-1.65 0-2.25 1.4v7h-1.67v-9.85h1.64l.02 1.14q.83-1.32 2.36-1.32.48 0 .75.13v1.56zm3.83-3.9v2.39h1.84v1.3h-1.84v6.12q0 .6.23.89.25.3.84.3.3 0 .82-.11v1.35q-.68.2-1.3.2-1.13 0-1.7-.7-.58-.68-.58-1.93v-6.11h-1.8v-1.31h1.8v-2.4h1.69zm7.89 12.43q-2 0-3.27-1.31-1.25-1.33-1.25-3.53v-.31q0-1.47.56-2.61.57-1.16 1.57-1.8 1.01-.66 2.18-.66 1.92 0 2.99 1.27 1.06 1.26 1.06 3.62v.7h-6.67q.03 1.46.84 2.37.83.89 2.08.89.9 0 1.52-.36.62-.38 1.07-.97l1.03.8q-1.23 1.9-3.71 1.9zm-.2-8.84q-1.02 0-1.73.75-.68.73-.84 2.08h4.94v-.13q-.08-1.28-.7-1.98-.61-.72-1.68-.72zm7.58-1.2l.05 1.09q1.08-1.27 2.92-1.27 2.06 0 2.81 1.58.5-.72 1.28-1.14.8-.44 1.86-.44 3.25 0 3.3 3.43v6.6h-1.67v-6.5q0-1.06-.49-1.57-.48-.53-1.62-.53-.94 0-1.56.56-.61.56-.72 1.5v6.54h-1.7v-6.45q0-2.15-2.1-2.15-1.66 0-2.27 1.4v7.2h-1.68v-9.85h1.59zm20.5 7.25q0-.7-.5-1.07-.52-.37-1.8-.64-1.29-.28-2.04-.65-.75-.4-1.1-.93-.36-.53-.36-1.26 0-1.2 1.01-2.03 1.03-.85 2.63-.85 1.67 0 2.71.86 1.05.86 1.05 2.22h-1.69q0-.7-.59-1.2-.6-.5-1.48-.5-.93 0-1.44.4-.52.4-.52 1.05 0 .61.49.92.48.32 1.73.6 1.27.28 2.05.67.78.39 1.15.94.4.54.4 1.34 0 1.33-1.07 2.13-1.04.8-2.73.8-1.19 0-2.11-.43-.9-.42-1.42-1.17-.52-.75-.52-1.63h1.69q.05.85.67 1.35.64.5 1.69.5.95 0 1.53-.4.58-.38.58-1.02z"/>
    <path fill="none" d="M237.48 81.76L348.9 167.1"/>
    <path stroke="#000" stroke-linecap="butt" stroke-linejoin="round" d="M237.48 81.76L348.9 167.1"/>
    <path fill="none" d="M460.34 81.76L348.91 167.1"/>
    <path stroke="#000" stroke-linecap="butt" stroke-linejoin="round" d="M460.34 81.76L348.91 167.1"/>
  </g>
</svg>
